<svg width="464" height="283" viewBox="0 0 464 283" fill="none" xmlns="http://www.w3.org/2000/svg">
<path fill-rule="evenodd" clip-rule="evenodd" d="M339 8C339 12.4183 335.418 16 331 16C326.582 16 323 12.4183 323 8C323 3.58172 326.582 0 331 0C335.418 0 339 3.58172 339 8ZM8 181C12.4183 181 16 177.418 16 173C16 168.582 12.4183 165 8 165C3.58172 165 0 168.582 0 173C0 177.418 3.58172 181 8 181ZM182 283C186.418 283 190 279.418 190 275C190 270.582 186.418 267 182 267C177.582 267 174 270.582 174 275C174 279.418 177.582 283 182 283ZM456 165C460.418 165 464 161.418 464 157C464 152.582 460.418 149 456 149C451.582 149 448 152.582 448 157C448 161.418 451.582 165 456 165Z" fill="white" fill-opacity="0.6"/>
</svg>
